<svg aria-hidden="true" style="width:0;height:0;position:absolute;overflow:hidden" xmlns="http://www.w3.org/2000/svg"><defs><symbol id="icon-arrow-right" viewBox="0 0 24 24"><path d="M11.293 5.707 16.586 11H5a1 1 0 0 0 0 2h11.586l-5.293 5.293a.999.999 0 1 0 1.414 1.414l7-7a1.006 1.006 0 0 0 0-1.414l-7-7a.999.999 0 1 0-1.414 1.414z"/></symbol><symbol id="icon-small-arrow-right" viewBox="0 0 24 24"><path d="m9.707 18.707 6-6a.999.999 0 0 0 0-1.414l-6-6a.999.999 0 1 0-1.414 1.414L13.586 12l-5.293 5.293a.999.999 0 1 0 1.414 1.414z"/></symbol><symbol id="icon-open" viewBox="0 0 24 24"><path d="M8 7h13a1 1 0 0 0 0-2H8a1 1 0 0 0 0 2zm0 6h13a1 1 0 0 0 0-2H8a1 1 0 0 0 0 2zm0 6h13a1 1 0 0 0 0-2H8a1 1 0 0 0 0 2zM3 7a1 1 0 1 0 0-2 1 1 0 0 0 0 2zm0 6a1 1 0 1 0 0-2 1 1 0 0 0 0 2zm0 6a1 1 0 1 0 0-2 1 1 0 0 0 0 2z"/></symbol><symbol id="icon-close" viewBox="0 0 24 24"><path d="M5.293 6.707 10.586 12l-5.293 5.293a.999.999 0 1 0 1.414 1.414L12 13.414l5.293 5.293a.999.999 0 1 0 1.414-1.414L13.414 12l5.293-5.293a.999.999 0 1 0-1.414-1.414L12 10.586 6.707 5.293a.999.999 0 1 0-1.414 1.414z"/></symbol><symbol id="icon-reviews-dot" viewBox="0 0 32 32"><path fill="#d9d9d9" style="fill:var(--color1,#d9d9d9)" d="M32 16c0 8.837-7.163 16-16 16S0 24.837 0 16 7.163 0 16 0s16 7.163 16 16z"/></symbol><symbol id="icon-home" viewBox="0 0 26 24"><path d="M24.48 11.551a1.156 1.156 0 0 0-.097-1.669L13.304.319a1.395 1.395 0 0 0-1.801.02L.386 10.391a1.148 1.148 0 0 0-.053 1.666l.279.286c.462.475 1.21.531 1.668.126l.831-.734V22.48c0 .659.542 1.193 1.209 1.193h4.333a1.2 1.2 0 0 0 1.209-1.193v-7.517h5.527v7.517c-.01.659.468 1.192 1.136 1.192h4.592a1.2 1.2 0 0 0 1.209-1.193V11.886l.513.444c.284.246.876.049 1.325-.439l.315-.342z"/></symbol><symbol id="icon-github" viewBox="0 0 24 24"><path d="M12 0C5.408 0 0 5.408 0 12c0 5.624 3.947 10.734 9.187 12v-3.97a2.923 2.923 0 0 1-1.546-.045l.021.005c-.709-.209-1.285-.682-1.714-1.402-.272-.46-.756-.96-1.26-.923l-.124-1.4c1.091-.094 2.033.665 2.592 1.604.25.419.536.664.904.772.354.106.736.055 1.18-.102.112-.889.52-1.222.828-1.692-3.126-.466-4.372-2.124-4.866-3.432-.655-1.739-.304-3.91.854-5.282.023-.026.064-.096.048-.144-.532-1.606.115-2.933.139-3.073.613.18.713-.182 2.664 1.002l.336.203c.142.084.096.036.238.024a9.922 9.922 0 0 1 2.511-.352h.007c.852.011 1.704.132 2.552.362l.109.012c-.01-.002.03-.007.096-.047 2.436-1.476 2.348-.994 3.002-1.206.024.142.661 1.49.137 3.074-.072.218 2.112 2.218.901 5.426-.494 1.308-1.74 2.968-4.865 3.433.401.612.882.936.88 2.196v4.955c5.239-1.266 9.187-6.376 9.187-12 0-6.592-5.408-12-12-12z"/></symbol><symbol id="icon-telegram" viewBox="0 0 33 24"><path d="m13.006 15.786-.505 6.645c.725 0 1.038-.291 1.414-.639l3.395-3.03 7.035 4.81c1.29.671 2.2.317 2.55-1.108l4.617-20.199c.411-1.78-.69-2.477-1.946-2.04L2.42 9.925c-1.853.672-1.826 1.635-.315 2.074l6.939 2.013 16.12-9.414c.759-.47 1.449-.21.882.26L13.003 15.785z"/></symbol><symbol id="icon-facebook" viewBox="0 0 12 24"><path d="M10.607 11.978H7.582v11.149H2.998V11.978H.818V8.062h2.18V5.526c0-1.813.856-4.653 4.625-4.653l3.395.014v3.804H8.555c-.404 0-.973.204-.973 1.069v2.305h3.425l-.4 3.914z"/></symbol><symbol id="icon-red-arrow-right" viewBox="0 0 22 32"><path fill="none" stroke="#d41443" style="stroke:var(--color1,#d41443)" stroke-linejoin="round" stroke-linecap="round" stroke-width="6.4" d="m4.545 3.2 13.7 12.8-13.7 12.8"/></symbol><symbol id="icon-white-arrow-right" viewBox="0 0 19 32"><path fill="none" stroke="#fff" style="stroke:var(--color2,#fff)" stroke-linejoin="round" stroke-linecap="round" stroke-width="6.4" d="M3.2 3.2 14.753 16 3.2 28.8"/></symbol></defs></svg>