<svg aria-hidden="true" style="position: absolute; width: 0; height: 0; overflow: hidden;" version="1.1" xmlns="http://www.w3.org/2000/svg" xmlns:xlink="http://www.w3.org/1999/xlink">
<defs>
<symbol id="icon-arrow-right" viewBox="0 0 24 24">
<path d="M11.293 5.707l5.293 5.293h-11.586c-0.552 0-1 0.448-1 1s0.448 1 1 1h11.586l-5.293 5.293c-0.391 0.391-0.391 1.024 0 1.414s1.024 0.391 1.414 0l7-7c0.092-0.092 0.166-0.202 0.217-0.324 0.101-0.245 0.101-0.521 0-0.766-0.049-0.118-0.121-0.228-0.217-0.324l-7-7c-0.391-0.391-1.024-0.391-1.414 0s-0.391 1.024 0 1.414z"></path>
</symbol>
<symbol id="icon-small-arrow-right" viewBox="0 0 24 24">
<path d="M9.707 18.707l6-6c0.391-0.391 0.391-1.024 0-1.414l-6-6c-0.391-0.391-1.024-0.391-1.414 0s-0.391 1.024 0 1.414l5.293 5.293-5.293 5.293c-0.391 0.391-0.391 1.024 0 1.414s1.024 0.391 1.414 0z"></path>
</symbol>
<symbol id="icon-open" viewBox="0 0 24 24">
<path d="M8 7h13c0.552 0 1-0.448 1-1s-0.448-1-1-1h-13c-0.552 0-1 0.448-1 1s0.448 1 1 1zM8 13h13c0.552 0 1-0.448 1-1s-0.448-1-1-1h-13c-0.552 0-1 0.448-1 1s0.448 1 1 1zM8 19h13c0.552 0 1-0.448 1-1s-0.448-1-1-1h-13c-0.552 0-1 0.448-1 1s0.448 1 1 1zM3 7c0.552 0 1-0.448 1-1s-0.448-1-1-1-1 0.448-1 1 0.448 1 1 1zM3 13c0.552 0 1-0.448 1-1s-0.448-1-1-1-1 0.448-1 1 0.448 1 1 1zM3 19c0.552 0 1-0.448 1-1s-0.448-1-1-1-1 0.448-1 1 0.448 1 1 1z"></path>
</symbol>
<symbol id="icon-close" viewBox="0 0 24 24">
<path d="M5.293 6.707l5.293 5.293-5.293 5.293c-0.391 0.391-0.391 1.024 0 1.414s1.024 0.391 1.414 0l5.293-5.293 5.293 5.293c0.391 0.391 1.024 0.391 1.414 0s0.391-1.024 0-1.414l-5.293-5.293 5.293-5.293c0.391-0.391 0.391-1.024 0-1.414s-1.024-0.391-1.414 0l-5.293 5.293-5.293-5.293c-0.391-0.391-1.024-0.391-1.414 0s-0.391 1.024 0 1.414z"></path>
</symbol>
<symbol id="icon-reviews-dot" viewBox="0 0 32 32">
<path fill="#d9d9d9" style="fill: var(--color1, #d9d9d9)" d="M32 16c0 8.837-7.163 16-16 16s-16-7.163-16-16c0-8.837 7.163-16 16-16s16 7.163 16 16z"></path>
</symbol>
<symbol id="icon-home" viewBox="0 0 26 24">
<path d="M24.48 11.551c0.449-0.488 0.406-1.235-0.097-1.669l-11.079-9.563c-0.503-0.434-1.309-0.425-1.801 0.020l-11.117 10.052c-0.492 0.445-0.516 1.191-0.053 1.666l0.279 0.286c0.462 0.475 1.21 0.531 1.668 0.126l0.831-0.734v10.745c0 0.659 0.542 1.193 1.209 1.193h4.333c0.668 0 1.209-0.534 1.209-1.193v-7.517h5.527v7.517c-0.010 0.659 0.468 1.192 1.136 1.192h4.592c0.668 0 1.209-0.534 1.209-1.193v-10.593c0 0 0.229 0.198 0.513 0.444s0.876 0.049 1.325-0.439l0.315-0.342z"></path>
</symbol>
<!-- <symbol id="icon-quote" viewBox="0 0 32 24">
<path d="M24.011 0c1.446 0 2.812 0.39 4.098 1.171s2.33 1.903 3.134 3.366c0.772 1.463 1.157 3.187 1.157 5.171s-0.482 3.919-1.446 5.805c-0.322 0.683-0.9 1.561-1.736 2.634-0.868 1.073-1.671 2-2.41 2.78l-3.038 3.073-2.17-3.61c1.547-0.976 2.868-2.141 3.98-3.485l0.022-0.028c1.157-1.366 1.735-2.618 1.735-3.756 0-0.586-0.128-1.057-0.385-1.415-1.125 0.813-2.379 1.22-3.761 1.22-0.996 0-1.945-0.309-2.845-0.927-0.928-0.586-1.678-1.376-2.202-2.309l-0.017-0.032c-0.578-0.943-0.868-1.919-0.868-2.927 0-1.139 0.337-2.228 1.012-3.269 0.649-1.042 1.508-1.894 2.523-2.517l0.033-0.019c1.028-0.618 2.088-0.927 3.181-0.927zM6.702 0c1.446 0 2.812 0.39 4.098 1.171s2.33 1.902 3.134 3.366c0.772 1.463 1.157 3.187 1.157 5.171 0 1.398-0.177 2.65-0.53 3.756-0.354 1.138-0.964 2.325-1.832 3.561-0.836 1.171-1.623 2.146-2.362 2.927-0.739 0.813-2.025 2.162-3.857 4.049l-2.17-3.61c1.547-0.976 2.868-2.141 3.98-3.485l0.022-0.028c1.157-1.366 1.736-2.618 1.736-3.756 0-0.586-0.129-1.057-0.386-1.415-1.125 0.813-2.379 1.22-3.761 1.22-0.996 0-1.945-0.309-2.845-0.927-0.928-0.586-1.678-1.376-2.202-2.309l-0.017-0.032c-0.578-0.943-0.868-1.919-0.868-2.927 0-1.139 0.322-2.228 0.964-3.269 0.649-1.042 1.508-1.894 2.523-2.517l0.033-0.019c1.028-0.618 2.088-0.927 3.182-0.927z"></path>
</symbol> -->
<symbol id="icon-github" viewBox="0 0 24 24">
<path d="M12 0c-6.592 0-12 5.408-12 12 0 5.624 3.947 10.734 9.187 12v-3.97c-0.207 0.052-0.444 0.082-0.689 0.082-0.298 0-0.586-0.044-0.857-0.127l0.021 0.005c-0.709-0.209-1.285-0.682-1.714-1.402-0.272-0.46-0.756-0.96-1.26-0.923l-0.124-1.4c1.091-0.094 2.033 0.665 2.592 1.604 0.25 0.419 0.536 0.664 0.904 0.772 0.354 0.106 0.736 0.055 1.18-0.102 0.112-0.889 0.52-1.222 0.828-1.692-3.126-0.466-4.372-2.124-4.866-3.432-0.655-1.739-0.304-3.91 0.854-5.282 0.023-0.026 0.064-0.096 0.048-0.144-0.532-1.606 0.115-2.933 0.139-3.073 0.613 0.18 0.713-0.182 2.664 1.002l0.336 0.203c0.142 0.084 0.096 0.036 0.238 0.024 0.752-0.212 1.618-0.339 2.511-0.352l0.007-0c0.852 0.011 1.704 0.132 2.552 0.362l0.109 0.012c-0.010-0.002 0.030-0.007 0.096-0.047 2.436-1.476 2.348-0.994 3.002-1.206 0.024 0.142 0.661 1.49 0.137 3.074-0.072 0.218 2.112 2.218 0.901 5.426-0.494 1.308-1.74 2.968-4.865 3.433 0.401 0.612 0.882 0.936 0.88 2.196v4.955c5.239-1.266 9.187-6.376 9.187-12 0-6.592-5.408-12-12-12z"></path>
</symbol>
<symbol id="icon-telegram" viewBox="0 0 33 24">
<path d="M13.006 15.786l-0.505 6.645c0.725 0 1.038-0.291 1.414-0.639l3.395-3.030 7.035 4.81c1.29 0.671 2.2 0.317 2.55-1.108l4.617-20.199c0.411-1.78-0.69-2.477-1.946-2.040l-27.146 9.7c-1.853 0.672-1.826 1.635-0.315 2.074l6.939 2.013 16.12-9.414c0.759-0.47 1.449-0.21 0.882 0.26l-13.043 10.927z"></path>
</symbol>
<symbol id="icon-facebook" viewBox="0 0 12 24">
<path d="M10.607 11.978h-3.025v11.149h-4.584v-11.149h-2.18v-3.916h2.18v-2.536c0-1.813 0.856-4.653 4.625-4.653l3.395 0.014v3.804h-2.463c-0.404 0-0.973 0.204-0.973 1.069v2.305h3.425l-0.4 3.914z"></path>
</symbol>
<symbol id="icon-red-arrow-right" viewBox="0 0 22 32">
<path fill="none" stroke="#d41443" style="stroke: var(--color1, #d41443)" stroke-linejoin="round" stroke-linecap="round" stroke-miterlimit="4" stroke-width="6.4" d="M4.545 3.2l13.7 12.8-13.7 12.8"></path>
</symbol>
<symbol id="icon-white-arrow-right" viewBox="0 0 19 32">
<path fill="none" stroke="#fff" style="stroke: var(--color2, #fff)" stroke-linejoin="round" stroke-linecap="round" stroke-miterlimit="4" stroke-width="6.4" d="M3.2 3.2l11.553 12.8-11.553 12.8"></path>
</symbol>
</defs>
</svg>